<svg width="229" height="36" viewBox="0 0 229 36" fill="none" xmlns="http://www.w3.org/2000/svg">
<path d="M22.0001 19.3334C23.1047 19.3334 24.0001 18.438 24.0001 17.3334C24.0001 16.2288 23.1047 15.3334 22.0001 15.3334C20.8955 15.3334 20.0001 16.2288 20.0001 17.3334C20.0001 18.438 20.8955 19.3334 22.0001 19.3334Z" stroke="#0F0F10" stroke-opacity="0.3" stroke-width="2" stroke-linecap="round" stroke-linejoin="round"/>
<path d="M25.7714 21.1047L22.9428 23.9334C22.6927 24.1831 22.3538 24.3234 22.0004 24.3234C21.647 24.3234 21.3081 24.1831 21.0581 23.9334L18.2288 21.1047C17.4829 20.3588 16.975 19.4085 16.7692 18.374C16.5634 17.3394 16.6691 16.2671 17.0728 15.2925C17.4764 14.318 18.16 13.4851 19.0371 12.8991C19.9141 12.313 20.9453 12.0002 22.0001 12.0002C23.0549 12.0002 24.086 12.313 24.9631 12.8991C25.8402 13.4851 26.5237 14.318 26.9274 15.2925C27.3311 16.2671 27.4367 17.3394 27.231 18.374C27.0252 19.4085 26.5173 20.3588 25.7714 21.1047Z" stroke="#0F0F10" stroke-opacity="0.3" stroke-width="2" stroke-linecap="round" stroke-linejoin="round"/>
<path d="M41.3672 13.0059H44.1973C45.446 13.0059 46.3848 13.1927 47.0137 13.5664C47.6426 13.9401 47.957 14.5758 47.957 15.4736C47.957 15.861 47.8818 16.2096 47.7314 16.5195C47.5856 16.8249 47.3714 17.0778 47.0889 17.2783C46.8063 17.4788 46.4577 17.6178 46.043 17.6953V17.7637C46.4805 17.832 46.8678 17.9574 47.2051 18.1396C47.5423 18.3219 47.8066 18.5771 47.998 18.9053C48.1895 19.2334 48.2852 19.6504 48.2852 20.1562C48.2852 20.7715 48.1416 21.291 47.8545 21.7148C47.5719 22.1387 47.1709 22.46 46.6514 22.6787C46.1318 22.8929 45.5166 23 44.8057 23H41.3672V13.0059ZM42.5293 17.292H44.4434C45.3138 17.292 45.9154 17.1484 46.248 16.8613C46.5853 16.5742 46.7539 16.1549 46.7539 15.6035C46.7539 15.0339 46.5534 14.6237 46.1523 14.373C45.7559 14.1224 45.1224 13.9971 44.252 13.9971H42.5293V17.292ZM42.5293 18.2695V22.0088H44.6074C45.4961 22.0088 46.125 21.8356 46.4941 21.4893C46.8633 21.1383 47.0479 20.6667 47.0479 20.0742C47.0479 19.696 46.9635 19.3724 46.7949 19.1035C46.6309 18.8346 46.362 18.6296 45.9883 18.4883C45.6191 18.3424 45.1247 18.2695 44.5049 18.2695H42.5293ZM53.248 23.1367C52.5736 23.1367 51.9788 22.9977 51.4639 22.7197C50.9489 22.4417 50.5479 22.0179 50.2607 21.4482C49.9736 20.8786 49.8301 20.1608 49.8301 19.2949C49.8301 18.388 49.9805 17.6475 50.2812 17.0732C50.5866 16.4945 51.0059 16.0661 51.5391 15.7881C52.0723 15.5101 52.6784 15.3711 53.3574 15.3711C53.7311 15.3711 54.0911 15.4098 54.4375 15.4873C54.7884 15.5602 55.0755 15.6536 55.2988 15.7676L54.957 16.7178C54.7292 16.6266 54.4648 16.5446 54.1641 16.4717C53.8678 16.3988 53.5898 16.3623 53.3301 16.3623C52.8105 16.3623 52.3776 16.474 52.0312 16.6973C51.6895 16.9206 51.432 17.2487 51.2588 17.6816C51.0902 18.1146 51.0059 18.6478 51.0059 19.2812C51.0059 19.8874 51.0879 20.4046 51.252 20.833C51.4206 21.2614 51.6689 21.5895 51.9971 21.8174C52.3298 22.0407 52.7445 22.1523 53.2412 22.1523C53.6377 22.1523 53.9954 22.1113 54.3145 22.0293C54.6335 21.9427 54.9229 21.8424 55.1826 21.7285V22.7402C54.932 22.8678 54.6517 22.9658 54.3418 23.0342C54.0365 23.1025 53.6719 23.1367 53.248 23.1367ZM59.8447 15.3711C60.4827 15.3711 61.0296 15.5124 61.4854 15.7949C61.9411 16.0775 62.2897 16.474 62.5312 16.9844C62.7728 17.4902 62.8936 18.0827 62.8936 18.7617V19.4658H57.7188C57.7324 20.3454 57.9512 21.0153 58.375 21.4756C58.7988 21.9359 59.3958 22.166 60.166 22.166C60.64 22.166 61.0592 22.1227 61.4238 22.0361C61.7884 21.9495 62.1667 21.8219 62.5586 21.6533V22.6514C62.1803 22.82 61.8044 22.943 61.4307 23.0205C61.0615 23.098 60.624 23.1367 60.1182 23.1367C59.3981 23.1367 58.7692 22.9909 58.2314 22.6992C57.6982 22.403 57.2835 21.9701 56.9873 21.4004C56.6911 20.8307 56.543 20.1335 56.543 19.3086C56.543 18.502 56.6774 17.8047 56.9463 17.2168C57.2197 16.6243 57.6025 16.1686 58.0947 15.8496C58.5915 15.5306 59.1748 15.3711 59.8447 15.3711ZM59.8311 16.3008C59.2249 16.3008 58.7419 16.499 58.3818 16.8955C58.0218 17.292 57.8076 17.8457 57.7393 18.5566H61.7041C61.6995 18.11 61.6289 17.7181 61.4922 17.3809C61.36 17.0391 61.1572 16.7747 60.8838 16.5879C60.6104 16.3965 60.2594 16.3008 59.8311 16.3008ZM73.0039 15.5078V16.4717H69.5996V23H68.458V15.5078H73.0039ZM80.9609 19.2402C80.9609 19.8555 80.8812 20.4046 80.7217 20.8877C80.5622 21.3708 80.332 21.7786 80.0312 22.1113C79.7305 22.444 79.3659 22.6992 78.9375 22.877C78.5137 23.0501 78.0329 23.1367 77.4951 23.1367C76.9938 23.1367 76.5335 23.0501 76.1143 22.877C75.6995 22.6992 75.3395 22.444 75.0342 22.1113C74.7334 21.7786 74.4987 21.3708 74.3301 20.8877C74.166 20.4046 74.084 19.8555 74.084 19.2402C74.084 18.4199 74.223 17.7227 74.501 17.1484C74.779 16.5697 75.1755 16.1299 75.6904 15.8291C76.21 15.5238 76.8275 15.3711 77.543 15.3711C78.2266 15.3711 78.8236 15.5238 79.334 15.8291C79.849 16.1344 80.2477 16.5765 80.5303 17.1553C80.8174 17.7295 80.9609 18.4245 80.9609 19.2402ZM75.2598 19.2402C75.2598 19.8418 75.3395 20.3636 75.499 20.8057C75.6585 21.2477 75.9046 21.5895 76.2373 21.8311C76.57 22.0726 76.9984 22.1934 77.5225 22.1934C78.042 22.1934 78.4681 22.0726 78.8008 21.8311C79.138 21.5895 79.3864 21.2477 79.5459 20.8057C79.7054 20.3636 79.7852 19.8418 79.7852 19.2402C79.7852 18.6432 79.7054 18.1283 79.5459 17.6953C79.3864 17.2578 79.1403 16.9206 78.8076 16.6836C78.4749 16.4466 78.0443 16.3281 77.5156 16.3281C76.7363 16.3281 76.1644 16.5856 75.7998 17.1006C75.4398 17.6156 75.2598 18.3288 75.2598 19.2402ZM86.4434 15.3711C87.3776 15.3711 88.1227 15.6924 88.6787 16.335C89.2347 16.9775 89.5127 17.9437 89.5127 19.2334C89.5127 20.0856 89.3851 20.8011 89.1299 21.3799C88.8747 21.9587 88.5146 22.3962 88.0498 22.6924C87.5895 22.9886 87.0449 23.1367 86.416 23.1367C86.0195 23.1367 85.6709 23.0843 85.3701 22.9795C85.0693 22.8747 84.8118 22.7334 84.5977 22.5557C84.3835 22.3779 84.2057 22.1842 84.0645 21.9746H83.9824C83.9961 22.1523 84.012 22.3665 84.0303 22.6172C84.0531 22.8678 84.0645 23.0866 84.0645 23.2734V26.3496H82.9229V15.5078H83.8594L84.0098 16.6152H84.0645C84.2103 16.3874 84.388 16.18 84.5977 15.9932C84.8073 15.8018 85.0625 15.6514 85.3633 15.542C85.6686 15.4281 86.0286 15.3711 86.4434 15.3711ZM86.2451 16.3281C85.7256 16.3281 85.3063 16.4284 84.9873 16.6289C84.6729 16.8294 84.4427 17.1302 84.2969 17.5312C84.151 17.9277 84.0736 18.4268 84.0645 19.0283V19.2471C84.0645 19.8805 84.1328 20.416 84.2695 20.8535C84.4108 21.291 84.641 21.6237 84.96 21.8516C85.2835 22.0794 85.7165 22.1934 86.2588 22.1934C86.7236 22.1934 87.111 22.068 87.4209 21.8174C87.7308 21.5667 87.9609 21.2181 88.1113 20.7715C88.2663 20.3203 88.3438 19.8031 88.3438 19.2197C88.3438 18.3356 88.1706 17.6338 87.8242 17.1143C87.4824 16.5902 86.9561 16.3281 86.2451 16.3281ZM97.9551 19.2402C97.9551 19.8555 97.8753 20.4046 97.7158 20.8877C97.5563 21.3708 97.3262 21.7786 97.0254 22.1113C96.7246 22.444 96.36 22.6992 95.9316 22.877C95.5078 23.0501 95.027 23.1367 94.4893 23.1367C93.988 23.1367 93.5277 23.0501 93.1084 22.877C92.6937 22.6992 92.3337 22.444 92.0283 22.1113C91.7275 21.7786 91.4928 21.3708 91.3242 20.8877C91.1602 20.4046 91.0781 19.8555 91.0781 19.2402C91.0781 18.4199 91.2171 17.7227 91.4951 17.1484C91.7731 16.5697 92.1696 16.1299 92.6846 15.8291C93.2041 15.5238 93.8216 15.3711 94.5371 15.3711C95.2207 15.3711 95.8177 15.5238 96.3281 15.8291C96.8431 16.1344 97.2419 16.5765 97.5244 17.1553C97.8115 17.7295 97.9551 18.4245 97.9551 19.2402ZM92.2539 19.2402C92.2539 19.8418 92.3337 20.3636 92.4932 20.8057C92.6527 21.2477 92.8988 21.5895 93.2314 21.8311C93.5641 22.0726 93.9925 22.1934 94.5166 22.1934C95.0361 22.1934 95.4622 22.0726 95.7949 21.8311C96.1322 21.5895 96.3805 21.2477 96.54 20.8057C96.6995 20.3636 96.7793 19.8418 96.7793 19.2402C96.7793 18.6432 96.6995 18.1283 96.54 17.6953C96.3805 17.2578 96.1344 16.9206 95.8018 16.6836C95.4691 16.4466 95.0384 16.3281 94.5098 16.3281C93.7305 16.3281 93.1585 16.5856 92.7939 17.1006C92.4339 17.6156 92.2539 18.3288 92.2539 19.2402ZM105.406 15.5078V22.0361H106.479V25.5908H105.379V23H100.074V25.5908H98.9873V22.0361H99.5752C100.004 21.4437 100.359 20.7943 100.642 20.0879C100.924 19.3815 101.138 18.641 101.284 17.8662C101.43 17.0869 101.507 16.3008 101.517 15.5078H105.406ZM104.306 16.4102H102.528C102.487 17.0755 102.389 17.7523 102.234 18.4404C102.084 19.1286 101.883 19.7848 101.633 20.4092C101.382 21.029 101.09 21.5713 100.758 22.0361H104.306V16.4102ZM110.772 15.3848C111.666 15.3848 112.329 15.5853 112.762 15.9863C113.195 16.3874 113.411 17.0277 113.411 17.9072V23H112.584L112.365 21.8926H112.311C112.101 22.166 111.882 22.3962 111.654 22.583C111.426 22.7653 111.162 22.9043 110.861 23C110.565 23.0911 110.201 23.1367 109.768 23.1367C109.312 23.1367 108.906 23.057 108.551 22.8975C108.2 22.738 107.922 22.4964 107.717 22.1729C107.516 21.8493 107.416 21.4391 107.416 20.9424C107.416 20.195 107.712 19.6208 108.305 19.2197C108.897 18.8187 109.799 18.5999 111.012 18.5635L112.304 18.5088V18.0508C112.304 17.4036 112.165 16.9502 111.887 16.6904C111.609 16.4307 111.217 16.3008 110.711 16.3008C110.319 16.3008 109.945 16.3577 109.59 16.4717C109.234 16.5856 108.897 16.7201 108.578 16.875L108.229 16.0137C108.567 15.8405 108.954 15.6924 109.392 15.5693C109.829 15.4463 110.289 15.3848 110.772 15.3848ZM112.29 19.3086L111.148 19.3564C110.214 19.3929 109.556 19.5456 109.173 19.8145C108.79 20.0833 108.599 20.4639 108.599 20.9561C108.599 21.3844 108.729 21.7012 108.988 21.9062C109.248 22.1113 109.592 22.2139 110.021 22.2139C110.686 22.2139 111.23 22.0293 111.654 21.6602C112.078 21.291 112.29 20.7373 112.29 19.999V19.3086Z" fill="#0F0F10" fill-opacity="0.3"/>
</svg>
